<svg xmlns="http://www.w3.org/2000/svg" width="11.936" height="19.555" viewBox="0 0 11.936 19.555">
  <path id="Path_108" data-name="Path 108" d="M1398.191,594.194a1.294,1.294,0,0,0,1.293,1.293h9.226a1.294,1.294,0,0,0,1.293-1.293V580.809h-11.813Zm8.565-10.977a.482.482,0,1,1,.964,0v10.027a.482.482,0,1,1-.964,0Zm-3.141,0a.482.482,0,1,1,.965,0v10.027a.482.482,0,1,1-.965,0Zm-3.141,0a.482.482,0,1,1,.965,0v10.027a.482.482,0,1,1-.965,0Zm8.709-5.026h-2.547v-.926a1.336,1.336,0,0,0-1.335-1.334h-2.554a1.225,1.225,0,0,0-1.224,1.224v1.036h-2.547a.865.865,0,0,0-.865.865v.836h11.936v-.836A.865.865,0,0,0,1409.183,578.192Zm-4.03,0h-2.146v-.776h2.146Z" transform="translate(-1398.112 -575.932)" fill="#ED2737"/>
</svg>
