<svg xmlns="http://www.w3.org/2000/svg" width="14.589" height="19.556" viewBox="0 0 14.589 19.556">
  <path id="Path_107" data-name="Path 107" d="M1373.756,579.079l-4.145-2.752a.843.843,0,0,0-1.168.236l-1.31,1.975,5.547,3.683,1.312-1.973A.842.842,0,0,0,1373.756,579.079Zm-10.849,12.836a.582.582,0,0,1-.97-.644l6.844-10.319-2.256-1.5-6.851,10.329a.782.782,0,0,0-.131.44l.053,5.193a.328.328,0,0,0,.452.3l4.807-1.967a.779.779,0,0,0,.354-.291l6.861-10.323-2.32-1.541Z" transform="translate(-1359.543 -576.186)" fill="#0f172a"/>
</svg>
